<svg width="45" height="36" viewBox="0 0 45 36" fill="none" xmlns="http://www.w3.org/2000/svg"><path d="M16.416 2.973h12.167v21.862H16.416V2.973z" fill="#FF5F00"/><path d="M8.19 35.84v-2.318c0-.888-.542-1.467-1.469-1.467-.463 0-.965.154-1.313.656-.27-.425-.657-.656-1.236-.656-.386 0-.772.115-1.082.54v-.463h-.81v3.708h.81v-2.047c0-.657.348-.966.889-.966.54 0 .811.348.811.966v2.047h.811v-2.047c0-.657.386-.966.889-.966.54 0 .81.348.81.966v2.047h.89zm12.012-3.708h-1.313v-1.12h-.811v1.12h-.734v.734h.733v1.7c0 .85.348 1.351 1.275 1.351a2.17 2.17 0 001.005-.27l-.232-.695a1.27 1.27 0 01-.696.193c-.386 0-.54-.232-.54-.618v-1.661h1.313v-.734zm6.875-.078a1.09 1.09 0 00-.965.541v-.463H25.3v3.708h.81v-2.086c0-.618.271-.965.773-.965.155 0 .348.038.502.077l.232-.773c-.154-.038-.386-.038-.54-.038zm-10.39.387c-.386-.27-.927-.386-1.507-.386-.926 0-1.544.463-1.544 1.197 0 .618.463.966 1.274 1.082l.386.038c.425.077.657.193.657.386 0 .27-.309.464-.85.464-.54 0-.965-.193-1.236-.386l-.386.618c.425.309 1.004.463 1.584.463 1.081 0 1.7-.502 1.7-1.197 0-.657-.503-1.005-1.276-1.12l-.386-.039c-.348-.039-.618-.116-.618-.347 0-.271.27-.425.696-.425.463 0 .927.193 1.158.308l.348-.656zm21.553-.386a1.09 1.09 0 00-.965.54v-.463h-.811v3.708h.81v-2.086c0-.618.271-.965.773-.965.155 0 .348.038.503.077l.231-.773c-.154-.038-.386-.038-.54-.038zm-10.351 1.93c0 1.121.772 1.932 1.97 1.932.54 0 .926-.116 1.313-.425l-.387-.656c-.308.232-.617.347-.965.347-.657 0-1.12-.463-1.12-1.197 0-.695.463-1.159 1.12-1.197.348 0 .657.115.965.347l.387-.656c-.387-.31-.773-.425-1.313-.425-1.198 0-1.97.81-1.97 1.93zm7.493 0v-1.853h-.811v.463c-.27-.347-.657-.54-1.159-.54-1.043 0-1.854.81-1.854 1.93 0 1.121.811 1.932 1.854 1.932.54 0 .927-.193 1.159-.54v.463h.811v-1.854zm-2.974 0c0-.656.425-1.197 1.12-1.197.657 0 1.12.503 1.12 1.198 0 .657-.463 1.197-1.12 1.197-.695-.038-1.12-.54-1.12-1.197zm-9.695-1.93c-1.082 0-1.855.772-1.855 1.93 0 1.16.773 1.932 1.893 1.932.541 0 1.082-.154 1.507-.502l-.387-.58c-.309.233-.695.387-1.081.387-.502 0-1.004-.232-1.12-.889h2.742v-.308c.039-1.198-.656-1.97-1.7-1.97zm0 .695c.502 0 .85.309.927.888h-1.932c.078-.502.425-.888 1.005-.888zm20.124 1.236v-3.322h-.811v1.931c-.27-.347-.657-.54-1.159-.54-1.043 0-1.854.81-1.854 1.93 0 1.121.811 1.932 1.854 1.932.54 0 .927-.193 1.159-.54v.463h.811v-1.854zm-2.974 0c0-.657.425-1.197 1.12-1.197.657 0 1.12.502 1.12 1.197 0 .657-.463 1.197-1.12 1.197-.695-.038-1.12-.54-1.12-1.197zm-27.116 0v-1.854h-.811v.463c-.27-.347-.657-.54-1.159-.54-1.043 0-1.854.81-1.854 1.93 0 1.121.811 1.932 1.854 1.932.54 0 .927-.193 1.159-.54v.463h.811v-1.854zm-3.013 0c0-.657.425-1.197 1.12-1.197.657 0 1.12.502 1.12 1.197 0 .657-.463 1.197-1.12 1.197-.695-.038-1.12-.54-1.12-1.197z" fill="#fff"/><path d="M17.189 13.905c0-4.441 2.086-8.381 5.291-10.93A13.82 13.82 0 0013.906 0C6.219 0 0 6.219 0 13.905c0 7.687 6.219 13.906 13.905 13.906a13.82 13.82 0 008.575-2.974 13.885 13.885 0 01-5.291-10.931z" fill="#EB001B"/><path d="M45 13.905c0 7.687-6.219 13.906-13.905 13.906a13.82 13.82 0 01-8.575-2.974 13.826 13.826 0 005.291-10.931c0-4.442-2.086-8.382-5.291-10.932A13.82 13.82 0 0131.095 0C38.78 0 45 6.257 45 13.905z" fill="#F79E1B"/></svg>