<svg width="45" height="15" viewBox="0 0 45 15" fill="none" xmlns="http://www.w3.org/2000/svg"><path fill-rule="evenodd" clip-rule="evenodd" d="M11.157 14.557H7.295L4.399 3.176c-.138-.524-.43-.987-.859-1.205A12.318 12.318 0 000 .767V.328h6.221c.859 0 1.503.659 1.61 1.423l1.503 8.21 3.86-9.633h3.755l-5.792 14.23zm7.939 0h-3.648L18.453.328H22.1l-3.003 14.23zM26.818 4.27c.107-.766.751-1.205 1.503-1.205 1.18-.11 2.466.11 3.54.657l.644-3.064A8.996 8.996 0 0029.179 0c-3.54 0-6.116 1.97-6.116 4.706 0 2.081 1.825 3.174 3.113 3.832 1.393.656 1.93 1.095 1.823 1.75 0 .985-1.074 1.424-2.145 1.424-1.288 0-2.576-.329-3.755-.877l-.644 3.066c1.288.546 2.682.766 3.97.766 3.969.108 6.436-1.86 6.436-4.816 0-3.722-5.043-3.94-5.043-5.581zm17.807 10.287L41.73.328h-3.11c-.645 0-1.288.439-1.503 1.095l-5.363 13.134h3.755l.75-2.079h4.612l.43 2.08h3.325zM39.155 4.16l1.07 5.363h-3.003l1.932-5.363z" fill="#fff"/></svg>